<?xml version="1.0" standalone="no"?>
<!DOCTYPE svg PUBLIC "-//W3C//DTD SVG 1.1//EN" "http://www.w3.org/Graphics/SVG/1.1/DTD/svg11.dtd">
<svg xmlns="http://www.w3.org/2000/svg">
<metadata>Generated by Fontastic.me</metadata>
<defs>
<font id="untitled-font-1" horiz-adv-x="512">
<font-face font-family="untitled-font-1" units-per-em="512" ascent="480" descent="-32"/>
<missing-glyph horiz-adv-x="512" />

<glyph glyph-name="ac-repair-maintenance" unicode="&#97;" d="M119 76l-39 0c-6 0-10-5-10-10 0-6 5-10 10-10l39 0c6 0 11 5 11 10 0 5-5 10-11 10z m313 0l-39 0c-6 0-11-5-11-10 0-6 6-10 11-10l39 0c6 0 10 5 10 10 1 5-4 10-10 10z m20 385l-391 0c-31 0-56-25-56-56l0-251c0-32 25-57 56-57l391 0c31 0 56 25 56 57l0 251c0 31-25 56-56 56z m35-307c0-19-16-36-35-36l-391 0c-19 0-35 17-35 36l0 251c0 19 16 35 35 35l391 0c19 0 35-16 35-35z m-55 239l-39 0c-6 0-11-5-11-11 0-6 6-10 11-10l39 0c6 0 10 5 10 10 1 7-4 11-10 11z m-245 15c-72 0-130-59-130-130 0-71 58-129 130-129 71 0 129 58 129 129-1 72-58 130-129 130z m89-190l-79 0 0 27 92 0c-3-10-7-19-13-27z m-180 121l80 0 0-27-93 0c3 10 8 19 13 27z m80 21l-62 0c18 15 39 25 62 27z m0-68l0-27-98 0c-1 4-1 9-1 13 0 5 0 9 1 13l98 0z m0-47l0-27-80 0c-6 8-10 17-13 27z m0-48l0-26c-23 2-44 12-62 26z m21 0l61 0c-17-15-38-24-61-26z m0 68l0 27 97 0c1-4 1-9 1-13 0-5 0-9-1-13l-97 0z m0 48l0 27 79 0c6-8 10-17 13-27z m0 47l0 27c23-2 44-13 61-27z"/>
<glyph glyph-name="air-quality" unicode="&#98;" d="M373 318l-33 0 0 38 82 0c6 0 10 4 10 9l0 75c0 5-5 9-10 9-17 0-26-7-33-13-7-5-11-9-22-9-11 0-16 4-22 9-8 6-17 13-34 13-18 0-27-7-34-13-6-5-11-9-22-9-11 0-15 4-22 9-7 6-16 13-34 13-17 0-26-7-34-13-6-5-10-9-21-9-11 0-16 4-22 9-8 6-17 13-34 13-6 0-9-5-9-9l0-74c0-6 4-9 9-9l82 0 0-38-33 0c-5 0-9-4-9-9l0-36c0-25 21-46 47-46l161 0c26 0 47 21 47 46l0 36c0 4-4 8-10 8z m-275 111c4-2 8-5 13-8 7-5 16-12 33-12 18 0 27 7 34 12 7 6 11 10 22 10 11 0 16-4 22-10 7-5 17-12 34-12 17 0 27 7 34 12 6 6 11 10 22 10 11 0 15-4 22-10 7-5 16-12 34-12 17 0 26 7 33 12 5 4 8 7 13 8l0-54-316 0z m91-73l132 0 0-38-132 0z m175-83c0-15-13-27-28-27l-161 0c-16 0-28 13-28 27l0 27 217 0z m-269 45c-29 0-54-24-54-54l0-100-22 22c-3 3-10 3-14 0-3-4-3-10 0-14l38-38c2-1 5-2 6-2 3 0 5 1 7 2l37 38c4 4 4 10 0 14-3 3-10 3-13 0l-22-22 0 100c0 19 15 35 34 35 6 0 9 5 9 9 3 6 0 10-6 10z m410-132c-4 3-10 3-14 0l-22-22 0 100c0 29-24 54-54 54-5 0-9-4-9-9 0-5 5-9 9-9 19 0 35-16 35-35l0-100-22 22c-4 3-10 3-14 0-3-4-3-11 0-14l38-38c1-2 4-2 6-2 3 0 5 0 6 2l38 38c6 3 6 9 3 13z m-219-74l-21-22 0 102c0 5-4 9-9 9-5 0-9-4-9-9l0-102-22 22c-4 3-10 3-14 0-3-4-3-11 0-14l38-38c2-1 4-2 6-2 3 0 5 1 6 2l38 38c4 3 4 10 0 14-3 3-9 3-13 0z"/>
<glyph glyph-name="central-air-installation" unicode="&#99;" d="M498 474l-482 0c-6 0-10-5-10-10l0-280c0-6 5-10 10-10l51 0 0-56-26-28c-2-2-3-5-3-7l0-35c0-6 5-10 10-10l417 0c6 0 10 5 10 10l0 35c0 3-1 5-3 7l-26 26 0 56 51 0c6 0 10 5 10 10l0 281c1 6-4 11-9 11z m-43-395l0-21-397 0 0 21 23 23 97 0c6 0 10 5 10 10 0 6-5 10-10 10l-91 0 0 50 338 0 0-50-91 0c-6 0-10-5-10-10 0-6 5-10 10-10l98 0z m33 114l-462 0 0 260 462 0z m-340 35c52 0 95 43 95 95 0 52-43 96-95 96-53 0-96-44-96-96 0-52 43-95 96-95z m0 20c-21 0-40 8-53 22l106 0c-14-13-33-22-53-22z m0 150c20 0 39-8 52-23l-105 0c13 15 32 23 53 23z m-68-43l135 0c3-7 5-14 7-22l-149 0c1 8 4 15 7 22z m142-42c-1-8-3-15-7-22l-135 0c-3 7-5 14-7 22z m143-85c53 0 96 43 96 95 0 52-43 96-96 96-52 0-95-44-95-96 0-52 43-95 95-95z m0 20c-20 0-39 8-52 22l106 0c-14-13-32-22-54-22z m0 150c21 0 40-8 53-23l-105 0c13 15 32 23 52 23z m-67-43l135 0c3-7 5-14 7-22l-148 0c1 8 3 15 6 22z m142-42c-1-8-3-15-7-22l-135 0c-3 7-5 14-7 22z"/>
<glyph glyph-name="cooling" unicode="&#100;" d="M454 510l-391 0c-31 0-56-25-56-56l0-137c0-31 25-56 56-56l391 0c31 0 56 25 56 56l0 137c0 31-25 56-56 56z m-358-229l24 47 27 0 0-14c0-6 5-10 10-10 6 0 10 5 10 10l0 14 30 0 0-14c0-6 5-10 10-10 6 0 10 5 10 10l0 14 30 0 0-14c0-6 5-10 10-10 6 0 10 5 10 10l0 14 30 0 0-14c0-6 5-10 10-10 6 0 10 5 10 10l0 14 30 0 0-14c0-6 5-10 10-10 6 0 10 5 10 10l0 14 27 0 24-47z m393 36c0-19-16-35-35-35l-10 0-32 61c-2 3-5 6-9 6l-289 0c-4 0-7-2-9-6l-32-62-10 0c-19 0-35 16-35 35l0 138c0 19 16 35 35 35l391 0c19 0 35-16 35-35z m-211 132l-39 0c-6 0-10-5-10-10 0-6 5-10 10-10l39 0c6 0 10 5 10 10 0 6-4 10-10 10z m12-387l-21-21 0 160c0 6-5 10-10 10-6 0-10-5-10-10l0-159-21 21c-4 4-11 4-15 0-4-4-4-11 0-15l38-39c2-2 5-3 7-3 3 0 5 1 7 3l39 39c4 4 4 11 0 15-4 4-10 4-14-1z m-125 72l-10-11 0 78c0 6-5 10-10 10-6 0-10-5-10-10l0-77-11 11c-4 4-11 4-15 0-4-4-4-12 0-16l29-28c2-2 5-3 7-3 3 0 5 1 7 3l28 28c4 4 4 12 0 16-5 3-11 3-15-1z m229 0l-11-11 0 78c0 6-5 10-10 10-6 0-10-5-10-10l0-77-10 11c-4 4-11 4-15 0-4-4-4-12 0-16l28-28c2-2 5-3 7-3 3 0 5 1 7 3l29 28c4 4 4 12 0 16-4 3-11 3-15-1z"/>
<glyph glyph-name="duct-cleaning" unicode="&#101;" d="M461 504l-234 0c-103 0-187-85-187-189 0-53 22-101 58-136l-55-55c-2-2-3-5-3-7l0-105c0-6 5-10 10-10l356 0c6 0 10 5 10 10l0 105c0 3-1 5-3 7l-56 55c36 34 59 83 59 136 0 4 0 9 0 13l45 0c6 0 10 5 10 10l0 156c0 5-5 10-10 10z m-66-480l-335 0 0 47 54 0 0-15c0-6 5-10 10-10 6 0 10 5 10 10l0 15 31 0 0-15c0-6 5-10 10-10 6 0 10 5 10 10l0 15 31 0 0-15c0-6 5-10 10-10 6 0 11 5 11 10l0 15 30 0 0-15c0-6 5-10 11-10 6 0 10 5 10 10l0 15 30 0 0-15c0-6 6-10 11-10 6 0 10 5 10 10l0 15 53 0 0-47z m0 89l0-21-335 0 0 21 54 53c31-25 70-39 113-39 43 0 82 14 114 39z m-168 35c-92 0-167 75-167 167 0 93 75 167 167 167 92 0 167-74 167-167 1-92-75-167-167-167z m223 201l-37 0c-11 59-48 107-99 133l136 0z m-223 72c-58 0-105-47-105-106 0-58 47-105 105-105 59 0 106 47 106 105 1 59-47 106-106 106z m0-190c-46 0-85 38-85 85 0 46 38 85 85 85 47 0 85-37 85-85 0-47-38-85-85-85z"/>
<glyph glyph-name="plumbing-repair" unicode="&#102;" d="M258 290c-36 0-66-29-66-66 0-5 4-9 9-9 6 0 9 5 9 9 0 26 22 47 47 47 6 0 9 5 9 9 1 6-3 10-8 10z m-178-41c-6 0-9-5-9-10l0-30c0-6 4-10 9-10 6 0 9 5 9 10l0 30c0 6-4 10-9 10z m357-50c5 0 9 5 9 10l0 30c0 6-5 10-9 10-6 0-10-5-10-10l0-30c0-5 4-10 10-10z m45 89l-134 0c-10 14-23 26-38 33l0 42 4 0c5 0 9 5 9 9 0 6-5 10-9 10l-24 0 0 40 70 0c6 0 10 4 10 9l0 22c0 22-17 39-39 39l-48 0c-4 10-14 18-26 18-12 0-22-7-26-18l-49 0c-21 0-38-17-38-39l0-22c0-6 5-9 10-9l69 0 0-40-23 0c-5 0-9-5-9-10 0-5 4-9 9-9l4 0 0-41c-15-8-28-19-38-33l-132 0c-6 0-10-5-10-10l0-109c0-5 5-9 10-9l134 0c11-16 26-28 42-36-10-18-18-37-18-51 0-36 30-66 66-66 36 0 66 30 66 66 0 14-8 33-19 51 17 8 32 20 43 36l134 0c6 0 10 5 10 9l0 108c0 6-4 10-10 10z m-317 165c0 11 8 19 18 19l149 0c11 0 19-8 19-19l0-13-186 0z m79-31l28 0 0-40-28 0z m-20-59l67 0 0-33c-10 3-21 5-33 5-11 0-22-2-34-5z m34-337c-26 0-48 21-48 48 0 17 26 58 48 85 20-27 47-68 47-85 0-27-21-48-47-48z m215 154l-129 0c-4 0-7-2-9-5-10-16-24-28-40-34-13 20-27 37-30 41-2 1-4 3-7 3-3 0-6-1-8-3-2-4-16-21-29-41-16 7-31 18-40 34-2 3-5 5-9 5l-128 0 0 89 129 0c4 0 7 2 9 5 16 27 45 43 77 43 31 0 60-16 77-43 2-3 5-5 8-5l130 0 0-89z"/>
<glyph glyph-name="plumbing" unicode="&#103;" d="M166 115c-43 0-78 35-78 78 0 6-5 10-10 10-6 0-10-5-10-10 0-54 44-98 98-98 6 0 10 5 10 10 1 5-4 10-10 10z m174 308c-54 0-97-45-97-98 0-6 5-10 10-10 6 0 10 5 10 10 0 42 34 78 77 78 6 0 10 5 10 10 1 5-4 10-10 10z m162-334l-20 20 0 216c0 78-63 141-141 141-77 0-140-63-140-141l0-132c0-19-15-34-34-34-19 0-34 15-34 34l0 215 20 20c2 2 3 5 3 7l0 30c0 6-5 10-10 10l-134 0c-6 0-10-5-10-10l0-30c0-3 1-5 3-7l20-20 0-216c0-78 63-141 141-141 77 0 140 63 140 141l0 133c0 19 15 34 34 34 19 0 34-15 34-34l0-216-20-20c-2-2-3-5-3-7l0-30c0-6 5-10 10-10l134 0c6 0 10 5 10 10l0 30c0 2-1 5-3 7z m-480 366l113 0 0-15-18-17-78 0-17 17z m318-76c-30 0-54-24-54-54l0-132c0-67-54-121-120-121-67 0-121 54-121 121l0 209 65 0 0-210c0-30 25-54 55-54 30 0 54 24 54 54l0 133c0 67 54 121 120 121 67 0 121-54 121-121l0-210-65 0 0 210c1 30-24 54-55 54z m145-317l-114 0 0 15 18 17 77 0 17-17 0-15z"/>
<glyph glyph-name="lighting" unicode="&#104;" d="M86 483l346 0c6 0 11 6 11 11 0 6-6 11-11 11l-346 0c-6 0-10-6-10-11 0-5 5-11 10-11z m365-293c-34 70-102 115-180 118l0 71 24 0c5 0 9 2 10 6l21 48 74 0c6 0 11 5 11 11 0 6-6 10-11 10l-282 0c-6 0-10-5-10-10 0-7 5-11 10-11l74 0 21-48c2-4 6-6 10-6l24 0 0-70c-77-4-146-49-180-118-2-3-1-8 1-11 2-3 6-5 10-5l99 0c5-41 41-73 82-73 43 0 77 32 82 73l100 0c4 0 7 2 9 5 2 2 2 7 1 10z m-234 244l85 0-15-33-57 0z m43-310c-30 0-55 21-61 50l121 0c-5-28-30-50-60-50z m-163 72c34 57 95 91 163 91 67 0 128-34 163-91z m163-130c-6 0-10-5-10-11l0-42c0-7 5-11 10-11 7 0 11 5 11 11l0 42c0 7-5 11-11 11z m99 35c-4 5-11 5-16 0-4-4-4-11 0-16l31-31c3-2 6-3 8-3 3 0 5 1 7 3 5 5 5 12 0 16z m-199 0l-31-31c-4-4-4-11 0-16 2-2 5-3 8-3 3 0 5 1 7 3l32 31c4 5 4 12 0 16-4 5-12 5-16 0z"/>
<glyph glyph-name="leak-detection" unicode="&#105;" d="M486 500c-2 5-5 7-9 7l-441 0c-4 0-8-4-9-7-15-35-23-71-23-109 0-37 8-74 23-108 2-5 5-7 9-7l181 0c6 0 10 6 10 11 0 2 0 4-1 5l-14 31 34 36c3 3 4 6 4 9l-4 26 28-33-15-34c-2-3-1-7 1-10l28-36c2-4 5-5 9-5l181 0c4 0 8 2 9 7 15 34 23 71 23 108 0 38-9 74-24 109z m-17-202l-167 0-20 26 16 33c2 5 1 9-1 12l-58 68c-3 5-9 6-13 4-4-3-7-7-6-12l7-58-35-38c-3-3-4-9-2-12l11-23-157 0c-12 29-18 60-18 93 0 32 6 64 18 93l425 0c12-30 18-61 18-93 0-32-6-64-18-93z m-212-43c-3 0-6-1-8-4-9-11-86-107-86-155 0-51 42-94 94-94 51 0 94 42 94 94 0 48-77 144-85 155-3 2-6 4-9 4z m0-230c-39 0-71 32-71 71 0 31 45 97 71 130 26-34 72-100 72-130 0-39-32-71-72-71z m-30 94c-6 0-10-5-10-10l0-27c0-6 5-11 10-11 7 0 11 6 11 11l0 27c0 6-5 10-11 10z"/>
<glyph glyph-name="heating" unicode="&#106;" d="M438 289c4 0 6 2 9 4l23 24 25 0c7 0 12 6 12 12l0 50c0 7-6 12-12 12l-25 0-23 23c-3 3-6 4-9 4l-20 0c-7 45-47 81-94 81l-218 0c-52 1-94-42-94-93l0-305c0-52 43-94 94-94l219 0c48 0 87 35 94 81l20 0c4 0 6 1 9 4l24 23 25 0c7 0 11 6 11 12l0 50c0 8-6 12-11 12l-25 0-24 24c-3 3-6 4-9 4l-19 0 0 71 18 0z m20 81c3-2 6-3 9-3l18 0 0-26-18 0c-4 0-6-2-9-4l-23-24-15 0 0 82 15 0z m-133-339l-219 0c-38 0-70 32-70 70l0 305c0 38 31 70 70 70l219 0c38 0 70-31 70-70l0-305c0-38-32-70-70-70z m108 162l24-24c3-2 6-3 9-3l17 0 0-27-17 0c-4 0-6-1-9-3l-24-24-14 0 0 81z m-340 217c-7 0-12-6-12-12l0-288c0-8 6-12 12-12 7 0 12 6 12 12l0 288c1 7-5 12-12 12z m62 0c-7 0-12-6-12-12l0-288c0-8 6-12 12-12 7 0 12 6 12 12l0 288c0 7-6 12-12 12z m61 0c-8 0-12-6-12-12l0-288c0-8 6-12 12-12 7 0 11 6 11 12l0 288c0 7-4 12-11 12z m60 0c-7 0-12-6-12-12l0-288c0-8 6-12 12-12 7 0 12 6 12 12l0 288c1 7-5 12-12 12z m62 0c-7 0-12-6-12-12l0-288c0-8 6-12 12-12 7 0 12 6 12 12l0 288c0 7-6 12-12 12z"/>
<glyph glyph-name="surge-protection" unicode="&#107;" d="M256 325c6 0 10 5 10 10l0 23c0 7-5 11-10 11-6 0-10-5-10-11l0-23c0-6 4-10 10-10z m-57 4l-6 22c-2 5-8 9-14 7-5-1-9-7-7-13l6-22c1-6 5-9 10-9 1 0 2 0 3 0 6 3 9 9 8 15z m-76-4c-3 5-9 7-14 4-6-3-8-10-5-15l12-20c2-3 5-5 9-5 2 0 4 0 5 1 5 3 7 9 4 14z m259-34c2-1 3-1 5-1 4 0 7 2 9 5l12 20c3 6 1 12-5 15-5 3-11 1-14-4l-11-21c-3-5-1-12 4-14z m-60 24c1 0 2 0 3 0 5 0 9 3 10 9l6 22c1 5-2 11-7 13-5 1-11-2-13-7l-7-22c-2-7 1-13 8-15z m-44-189c0-12-10-22-22-22-12 0-22 10-22 22 0 12 10 21 22 21 12 0 22-9 22-21z m92 10l-54 0c-6 0-10-5-10-10 0-6 5-10 10-10l54 0c6 0 10 5 10 10 0 6-5 10-10 10z m-173 0l-54 0c-6 0-10-5-10-10 0-6 5-10 10-10l54 0c6 0 10 5 10 10 0 6-5 10-10 10z m300 324l-481 0c-6 0-10-5-10-10l0-317c0-3 1-5 3-7l61-60c2-3 5-4 7-4l359 0c3 0 5 1 7 4l61 60c2 2 3 5 3 7l0 316c0 6-5 11-10 11z m-12-323l-54-54-350 0-54 54 0 301 458 0z m-423 32l387 0c6 0 10 5 10 10l0 223c0 7-5 11-10 11l-387 0c-6 0-10-5-10-11l0-222c0-7 5-11 10-11z m155 20c5 18 21 30 39 30 18 0 35-13 39-30z m-143 202l365 0 0-202-122 0c-5 26-24 47-51 52l0 44c0 6-5 10-10 10-6 0-10-5-10-10l0-44c-26-4-46-25-50-51l-122 0z"/>
<glyph glyph-name="water-filtration" unicode="&#108;" d="M429 257c-2 2-6 4-9 4-3 0-6-1-8-4-7-8-67-84-67-124 0-41 34-75 75-75 42 0 76 34 76 75 0 39-61 116-67 124z m-9-178c-30 0-54 24-54 54 0 21 30 68 54 98 24-30 55-77 55-98-1-30-25-54-55-54z m-33 214l65 0c7 0 11 6 11 11 1 111-89 201-200 201-109 0-199-90-199-200l0-87c-27-15-45-44-45-76 0-21 9-42 22-58-20-18-31-43-31-71 0-7 5-11 10-11l173 0c6 0 11 5 11 11 0 28-12 53-31 71 13 15 21 35 21 58 0 32-18 61-44 76l0 87c0 62 51 113 113 113 62 0 114-50 114-113 0-6 4-12 10-12z m-205-268l-149 0c2 18 12 34 25 45 13-9 31-16 50-16 18 0 35 6 50 16 12-11 21-27 24-45z m-9 117c0-36-30-65-65-65-37 0-65 30-65 65 0 36 30 65 65 65 35 1 65-29 65-65z m90 297c-74 0-134-60-134-134l0-78c-7 2-14 3-21 3-8 0-15-1-22-3l0 78c0 98 80 178 179 178 94 0 171-73 178-167l-44 0c-6 69-65 123-136 123z m-196-297c0-23 18-41 41-41 22 0 40 18 40 41 0 22-18 40-40 40-23 0-41-18-41-40z m59 0c0-10-9-18-18-18-10 0-18 8-18 18 0 9 8 18 18 18 9 0 18-7 18-18z"/>
<glyph glyph-name="electircal" unicode="&#109;" d="M83 109l-47 0 25 57c2 5 0 12-5 15-6 3-13 0-16-5l-33-72c-1-4-1-8 1-12 2-3 5-5 10-5l48 0-26-57c-2-6 0-12 6-16 1-1 3-1 4-1 5 0 9 3 10 7l33 72c2 4 2 8-1 12-2 4-5 5-9 5z m418 310l-37 0 0 72c0 7-5 11-11 11-7 0-11-6-11-11l0-74-81 0 0 74c0 7-6 11-12 11-6 0-11-6-11-11l0-74-37 0c-7 0-12-5-12-11l0-42c0-3 2-6 4-8l58-63 0-47c0-7 5-11 11-11l78 0c6 0 11 5 11 11l0 47 58 63c3 2 3 6 3 8l0 42c0 7-4 13-11 13z m-11-51l-58-63c-2-2-3-4-3-8l0-40-55 0 0 40c0 4-1 6-3 8l-59 63 0 27 178 0z m-74 0l-31 0c-7 0-11-5-11-11 0-6 6-11 11-11l31 0c7 0 11 6 11 11 2 7-4 11-11 11z m0-155l-31 0c-7 0-11-6-11-12 0-6 6-11 11-11l5 0 0-76c0-43-35-76-76-76-42 0-76 34-76 76l0 118c10 4 18 14 18 26 0 12-8 22-18 27l0 119c0 55-44 99-99 99-54 0-99-44-99-99l0-171-5 0c-7 0-12-6-12-12 0-6 6-11 12-11l31 0c6 0 11 6 11 11 0 7-6 12-11 12l-5 0 0 171c0 42 35 76 76 76 42 0 76-35 76-76l0-118c-10-4-18-14-18-27 0-12 8-22 18-26l0-118c0-55 44-99 99-99 26 0 51 10 70 29 19 18 29 43 29 70l0 76 4 0c7 0 11 6 11 12 3 5-3 10-10 10z"/>
<glyph glyph-name="emergency-plumbing" unicode="&#110;" d="M410 252c-1 3-5 4-9 4-3 0-6-1-8-4-9-11-86-107-86-155 0-51 42-94 94-94 51 0 94 42 94 94 0 48-76 144-85 155z m-9-226c-39 0-71 32-71 71 0 31 45 97 71 130 26-34 72-100 72-130 1-39-32-71-72-71z m-29 95c-6 0-10-6-10-11l0-27c0-6 5-10 10-10 7 0 11 5 11 10l0 27c0 6-5 11-11 11z m-42 221l-45 154c-1 4-6 7-11 7l-31 0c-6 0-10-5-10-10l0-112-59-31-59 31 0 112c0 6-5 10-10 10l-31 0c-6 0-10-3-11-7l-45-154c-1-4 0-8 3-11l84-69 0-248c0-7 5-11 10-11l116 0c7 0 11 6 11 11l0 248 83 69c5 3 6 7 5 11z m-105-66c-2-2-4-5-4-8l0-243-94 0 0 243c0 3-1 6-4 8l-81 67 40 139 12 0 0-107c0-4 2-7 5-9l71-37c3-3 7-3 10 0l71 37c3 2 5 5 5 9l0 107 11 0 40-139z m-37-36l-27 0c-6 0-11-5-11-11 0-6 6-10 11-10l27 0c6 0 10 5 10 10 0 6-5 11-10 11z m0-43l-27 0c-6 0-11-5-11-10 0-7 6-11 11-11l27 0c6 0 10 5 10 11 0 5-5 10-10 10z m0-42l-27 0c-6 0-11-6-11-11 0-6 6-11 11-11l27 0c6 0 10 6 10 11 0 6-5 11-10 11z"/>
<glyph glyph-name="furnace-installation" unicode="&#111;" d="M464 428l-35 0c-3 46-42 84-90 84l-212 0c-50 0-91-41-91-91l0-324c0-50 41-90 90-90l212 0c50 0 90 41 90 90l0 140 35 0c7 0 11 5 11 11l0 168c3 6-3 12-10 12z m-58-331c0-37-29-67-67-67l-212 0c-36 0-67 29-67 67l0 324c0 36 30 67 67 67l48 0 0-25c0-7 6-11 12-11 6 0 11 5 11 11l0 25 24 0 0-25c0-7 6-11 11-11 7 0 12 5 12 11l0 25 24 0 0-25c0-7 5-11 11-11 7 0 11 5 11 11l0 25 48 0c36 0 67-29 67-67z m47 164l-24 0 0 143 24 0z m-120 104l-17 0c-11 0-21-2-30-7-15 29-45 48-46 49-3 3-9 3-12 0-2-1-31-20-46-49-9 5-20 7-31 7l-18 0c-7 0-11-5-11-11l0-43c0-39 32-71 70-71l84 0c39 0 71 32 71 71l0 43c-2 6-7 11-14 11z m-11-54c0-27-20-47-47-47l-84 0c-26 0-47 20-47 47l0 30 6 0c10 0 21-3 29-10 3-2 6-3 10-2 3 1 7 4 8 8 7 20 25 37 35 45 11-9 30-26 35-45 2-4 5-7 8-8 4-1 8 0 11 2 8 7 18 10 28 10l6 0 0-30z m19-127c0 7-5 12-11 12l-193 0c-7 0-12-6-12-12l0-103c0-7 6-12 12-12l193 0c7 0 11 6 11 12z m-193-92l0 81 169 0 0-29-25 0c-6 0-11-5-11-11 0-7 6-11 11-11l25 0 0-29-169 0z"/>
<glyph glyph-name="furnace-repair-maintenance" unicode="&#112;" d="M428 434l-30 0c-20 0-40-6-57-17-22 52-76 88-79 89-3 2-8 2-11 0-3-2-57-37-79-89-17 11-37 17-57 17l-30 0c-6 0-10-5-10-10l0-73c0-60 50-109 110-109l29 0c6 0 10 4 10 9l0 13c15-13 26-21 27-22 3-1 8-1 11 0 1 0 12 8 27 22l0-13c0-6 5-9 10-9l29 0c60 0 110 49 110 109l0 73c0 5-4 10-10 10z m-10-84c0-50-40-90-90-90l-19 0 0 26c0 4-3 8-7 10-3 2-7 1-10-3-14-15-27-25-35-31-8 6-21 16-35 31-3 3-7 4-10 3-4-2-7-5-7-10l0-25-20 0c-50 0-90 40-90 90l0 63 20 0c20 0 40-6 56-19 3-2 6-3 9-2 3 1 5 4 6 7 14 41 56 76 71 87 15-12 57-46 70-87 1-3 4-6 7-7 3-1 7 0 9 2 16 13 35 19 56 19l20 0 0-64z m-275-232l227 0c21 0 39 17 39 38 0 22-18 39-39 39l-256 0c-6 0-10-5-10-10 0-5 5-9 10-9l257 0c11 0 19-9 19-20 0-10-8-19-19-19l-228 0c-21 0-39-17-39-38 0-22 18-39 39-39l227 0c11 0 19-9 19-19 0-11-8-20-19-20l-256 0c-6 0-10-5-10-9 0-6 5-10 10-10l257 0c21 0 39 17 39 39 0 21-18 38-39 38l-228 0c-11 0-19 9-19 20 0 10 8 19 19 19z"/>
<glyph glyph-name="generators" unicode="&#113;" d="M144 146c0-11-9-21-21-21-12 0-22 10-22 21 0 12 10 22 22 22 12 0 21-10 21-22z m84 0c0-11-9-21-21-21-12 0-22 10-22 21 0 12 10 22 22 22 12 0 21-10 21-22z m265 257l-139 0 0 31c0 3-1 5-3 7-26 27-61 41-99 41-38 0-73-14-99-41-2-2-3-5-3-7l0-31-138 0c-6 0-10-5-10-10l0-322c0-6 5-11 10-11l46 0 0-15c0-6 5-10 11-10 6 0 10 5 10 10l0 15 349 0 0-15c0-6 5-10 10-10 6 0 11 5 11 10l0 15 43 0c6 0 10 6 10 11l0 322c1 5-4 10-9 10z m-322 26c23 21 51 32 82 32 31 0 59-11 82-32l0-26-164 0z m-148-348l0 55 27 0c6 0 10 5 10 10 0 7-5 11-10 11l-27 0 0 225 458 0 0-225-201 0c-7 0-11-5-11-11 0-6 5-10 11-10l201 0 0-55z m222 266l-176 0c-7 0-11-5-11-10l0-105c0-6 5-10 11-10l177 0c6 0 10 5 10 10l0 105c0 5-5 10-11 10z m-11-104l-59 0 22 35c3 5 1 11-3 14-6 3-12 1-15-3l-28-46-72 0 0 84 155 0z m92 2c6 0 10 5 10 10l0 48c0 6-5 10-10 10-7 0-11-5-11-10l0-48c-1-5 4-10 11-10z m51 0c6 0 10 5 10 10l0 48c0 6-5 10-10 10-6 0-10-5-10-10l0-48c0-5 4-10 10-10z m51 0c6 0 10 5 10 10l0 48c0 6-5 10-10 10-6 0-10-5-10-10l0-48c0-5 5-10 10-10z"/>
<glyph glyph-name="glove" unicode="&#114;" d="M223 305c9-18 20-33 34-47 14-14 30-25 47-34 4-2 9-1 12 2l45 45c2 2 3 5 3 7 0 3-1 5-3 7l-77 76c-2 2-5 3-7 3-3 0-5-1-7-3l-45-45c-3-2-4-7-2-11z m116-27l-32-32c-13 7-25 16-35 26-10 10-19 22-26 35l32 32z m-36-141l205 204c2 2 3 5 3 8-3 43-22 82-51 112-29 30-69 48-112 51-3 0-6-1-8-3l-82-82c0 1 0 3 0 4 0 21-8 42-24 57-3 4-10 4-14 0l-55-55c-53-55-39-119-33-136l-20-44-101-74c-2-2-4-5-4-8 0-3 1-6 3-8l153-153c2-2 5-3 8-3 3 0 6 2 8 4l74 101 47 22c1 1 2 2 3 3z m87 344l-77-76c-4-4-4-11 0-15 4-4 11-4 15 0l82 82c10-5 19-12 28-19l-87-87c-4-4-4-11 0-15 4-4 11-4 15 0l86 87c7-9 14-18 19-28l-81-82c-4-4-4-11 0-15 4-4 11-4 15 0l76 77c5-13 8-26 9-39l-194-192-138 138 193 193c13-1 26-4 39-9z m-210-62l47 47c7-10 11-22 11-34 0-16-6-31-18-42l-71-72c-3 22-4 63 31 101z m-147-249l94 69c2 1 4 3 4 4l16 36 131-131-36-16c-2-1-3-2-4-3l-69-95z m128-46l-38 38c-4 4-11 4-15 0-4-4-4-11 0-15l38-38c4-4 11-4 15 0 4 5 4 11 0 15z"/>
<glyph glyph-name="heat-pump-installation" unicode="&#115;" d="M253 438c-22 0-42-8-57-23-32-32-32-84 0-116 15-15 35-24 57-24 21 0 42 9 57 24 16 15 24 36 24 57 0 22-8 42-24 58-15 15-36 24-57 24z m43-125c-11-11-27-17-43-17-16 0-32 6-43 17-24 24-24 63 0 86 11 12 27 18 43 18 16 0 32-6 43-18 11-11 17-26 17-43 0-16-6-31-17-43z m-30 71l-20-20c-4-5-4-12 0-16 2-2 5-3 7-3 3 0 5 1 7 3l21 21c4 4 4 11 0 15-5 4-11 4-15 0z m45-222l-116 0c-7 0-11-5-11-10 0-7 5-11 11-11l116 0c6 0 11 5 11 11 1 5-5 10-11 10z m50 347l-217 0c-45 0-81-37-81-81l0-261c0-36 24-66 56-77l0-20c0-3 1-5 3-8l20-20 0-22c0-6 5-10 11-10l43 0c6 0 10 5 10 10l0 22 20 20c2 3 3 6 3 8l0 16 45 0 0-16c0-3 1-5 4-8l20-20 0-22c0-6 5-10 10-10l43 0c6 0 10 5 10 10l0 22 21 20c2 3 3 6 3 8l0 20c32 11 55 41 55 77l0 260c2 45-33 82-79 82z m-151-436l-21-21c-2-2-3-5-3-7l0-15-22 0 0 15c0 3-1 5-3 7l-21 21 0 12 70 0z m157 0l-21-21c-2-2-3-5-3-7l0-15-22 0 0 15c0 3-2 5-4 7l-20 21 0 12 70 0z m55 93c0-33-27-61-61-61l-217 0c-32 0-60 27-60 61l0 53c4-2 8-5 12-9 8-8 19-19 37-19 20 0 30 11 37 19 7 7 12 12 23 12 10 0 15-5 22-12 8-8 18-19 37-19 19 0 30 11 37 19 7 7 12 12 22 12 11 0 16-5 23-12 8-8 18-19 37-19 19 0 29 11 37 19 4 4 7 7 12 9l0-53z m0 236l-23 0c-6 0-10-5-10-10 0-6 5-10 10-10l23 0 0-22-23 0c-6 0-10-5-10-10 0-6 5-10 10-10l23 0 0-22-23 0c-6 0-10-5-10-10 0-6 5-10 10-10l23 0 0-55c-12-3-21-11-27-18-7-7-12-12-22-12-11 0-16 5-23 12-8 8-18 19-37 19-19 0-29-11-37-19-7-7-12-12-22-12-10 0-15 5-23 12-8 8-18 19-36 19-20 0-30-11-37-19-7-7-13-12-23-12-10 0-15 5-22 12-7 6-15 15-27 18l0 54 23 0c6 0 10 5 10 10 0 6-5 10-10 10l-24 0 0 22 23 0c6 0 10 5 10 10 0 6-5 10-10 10l-23 0 0 22 23 0c6 0 10 5 10 10 0 6-5 10-10 10l-23 0 0 26c0 33 27 60 60 60l216 0c33 0 61-26 61-60z"/>
<glyph glyph-name="heater-repair-maintenance" unicode="&#116;" d="M173 340c18 0 31 14 31 30 0 4-2 8-3 12l20 18c5 5 5 13 0 18-5 4-13 4-17 0l-19-19c-3 1-7 2-12 2-8 0-16-3-22-9-6-6-9-14-9-22 0-8 3-16 9-22 6-5 14-8 22-8z m318-190l-57 0 0 35 26 0c7 0 11 6 11 12l0 22c0 36-23 66-56 77-1 12-12 23-25 23-14 0-25-11-26-23-32-11-56-42-56-77l0-21c0-7 6-12 12-12l26 0 0-35-87 0 0 27c0 5-2 8-5 11l-36 20 0 34c19 7 37 18 51 32 24 24 39 58 39 95 0 36-14 70-39 95-26 26-60 40-96 40-36 0-69-14-95-40-26-24-41-58-41-95 0-37 15-71 40-95 0 0 0 0 0-2 0 0 0 0 1 0 14-14 31-25 51-31l0-34-36-21c-3-2-6-5-6-10l0-27-73 0c-7 0-12-6-12-12l0-80c0-7 6-11 12-11l26 0c8-21 27-35 51-35l165 0c23 0 43 14 51 35l185 0c7 0 12 5 12 11l0 80c0 7-6 12-13 12z m-158 70c0 31 25 57 57 57 31 0 57-26 57-57l0-11-115 0 0 11z m37-34l40 0 0-35-40 0z m-261 120c-4 5-12 5-17 0l-6-6c-13 17-22 36-24 58l8 0c7 0 11 6 11 12 0 7-5 12-11 12l-7 0c2 21 10 42 24 58l6-6c1-2 5-3 8-3 4 0 6 1 8 3 5 5 5 13 0 17l-5 6c16 14 37 22 58 25l0-8c0-7 6-12 11-12 7 0 12 6 12 12l0 8c21-3 42-11 58-25l-6-6c-4-4-4-12 0-17 3-2 6-3 9-3 3 0 5 1 8 3l5 6c14-16 23-37 25-58l-8 0c-7 0-12-6-12-12 0-7 6-12 12-12l8 0c-2-22-11-41-25-58l-5 6c-5 5-13 5-18 0-4-5-4-13 0-17l6-6c-19-15-43-25-70-25-27 0-51 10-70 25l6 6c6 5 6 12 1 17z m2-136l36 21c3 2 5 6 5 10l0 35c7-1 13-1 20-1 7 0 14 0 20 1l0-35c0-4 2-8 6-10l36-21 0-20-123 0z m368-99l-181 0c-6 0-11-5-12-10-2-16-15-26-30-26l-23 0 0 27c0 7-6 11-12 11-7 0-12-6-12-11l0-27-24 0 0 27c0 7-6 11-12 11-7 0-11-6-11-11l0-27-25 0 0 27c0 7-6 11-11 11-7 0-12-6-12-11l0-27-23 0c-15 0-28 10-30 26-2 5-6 10-12 10l-23 0 0 56 453 0z"/>
</font>
</defs>
</svg>
